<svg id="icons" enable-background="new 0 0 64 64" height="512" viewBox="0 0 64 64" width="512" xmlns="http://www.w3.org/2000/svg"><g><g><path d="m1 5.005h4c0 2.21-1.79 4-4 4z" fill="#8cc152"/></g><g><path d="m19 9.995c2.21 0 4 1.8 4 4 0 2.21-1.79 4-4 4-2.2 0-4-1.79-4-4 0-2.2 1.8-4 4-4z" fill="#8cc152"/></g><g><path d="m37 9.005v8.59c-3.729.91-7.06 2.811-9.71 5.42l-.01-.01h-7.28-6-9c0-2.21-1.79-4-4-4v-10c2.21 0 4-1.79 4-4h28c0 2.21 1.79 4 4 4zm-14 4.99c0-2.2-1.79-4-4-4-2.2 0-4 1.8-4 4 0 2.21 1.8 4 4 4 2.21 0 4-1.79 4-4z" fill="#a0d468"/></g><g><path d="m20 23.005h7.28l.01.01c-.319.311-.63.63-.93.971-.58.64-1.11 1.31-1.601 2.02h-23.759v-3h4 9 6z" fill="#8cc152"/></g><g><path d="m5 23.005h-4v-4c2.21 0 4 1.79 4 4z" fill="#8cc152"/></g><g><path d="m1 26.005h23.76c-.659.94-1.25 1.95-1.739 3h-22.021z" fill="#8cc152"/></g><g><path d="m37 5.005v4c-2.21 0-4-1.79-4-4z" fill="#8cc152"/></g><g><path d="m57.641 23.985c-3.841-4.29-9.431-6.99-15.641-6.99-1.72 0-3.399.21-5 .6-3.729.91-7.06 2.811-9.71 5.42-.319.311-.63.63-.93.971-.58.64-1.11 1.31-1.601 2.02-.659.94-1.25 1.95-1.739 3-.46.96-.851 1.97-1.15 3-.57 1.9-.87 3.91-.87 5.99 0 5.39 2.03 10.3 5.36 14.01 3.84 4.29 9.43 6.99 15.64 6.99s11.8-2.7 15.641-6.99c3.33-3.71 5.359-8.62 5.359-14.01 0-5.392-2.029-10.301-5.359-14.011z" fill="#fc6e51"/></g><g><path d="m1 29.005h22.021c-.46.96-.851 1.97-1.15 3h-20.871z" fill="#8cc152"/></g></g><g><g><path d="m42 59.996c-12.131 0-22-9.869-22-22s9.869-22 22-22 22 9.869 22 22-9.869 22-22 22zm0-42c-11.028 0-20 8.972-20 20s8.972 20 20 20 20-8.972 20-20-8.972-20-20-20z"/></g><g><path d="m26.36 53.009c-.402 0-.781-.244-.934-.643-.198-.516.061-1.094.576-1.291 5.383-2.061 8.998-7.317 8.998-13.079s-3.615-11.018-8.997-13.079c-.516-.197-.774-.775-.576-1.291.197-.516.778-.772 1.291-.576 6.15 2.354 10.282 8.361 10.282 14.946s-4.132 12.592-10.282 14.946c-.117.045-.239.067-.358.067z"/></g><g><path d="m57.64 53.009c-.119 0-.24-.021-.357-.066-6.151-2.355-10.283-8.362-10.283-14.947s4.132-12.592 10.282-14.946c.513-.196 1.094.06 1.291.576.198.516-.061 1.094-.576 1.291-5.382 2.062-8.997 7.317-8.997 13.079s3.615 11.018 8.997 13.079c.516.197.774.775.576 1.291-.152.399-.531.643-.933.643z"/></g><g><g><path d="m27.281 24.006h-26.281c-.553 0-1-.447-1-1v-18.002c0-.553.447-1 1-1h36.004c.553 0 1 .447 1 1v12.629c0 .553-.447 1-1 1s-1-.447-1-1v-11.629h-34.004v16.002h25.281c.553 0 1 .447 1 1s-.447 1-1 1z"/></g><g><path d="m1 27.006c-.553 0-1-.447-1-1v-3c0-.553.447-1 1-1s1 .447 1 1v3c0 .553-.447 1-1 1z"/></g><g><path d="m24.756 27.006h-23.756c-.553 0-1-.447-1-1s.447-1 1-1h23.756c.553 0 1 .447 1 1s-.447 1-1 1z"/></g><g><path d="m23.021 30.006h-22.021c-.553 0-1-.447-1-1s.447-1 1-1h22.021c.553 0 1 .447 1 1s-.447 1-1 1z"/></g><g><path d="m1 30.006c-.553 0-1-.447-1-1v-3c0-.553.447-1 1-1s1 .447 1 1v3c0 .553-.447 1-1 1z"/></g><g><path d="m1 33.006c-.553 0-1-.447-1-1v-6c0-.553.447-1 1-1s1 .447 1 1v6c0 .553-.447 1-1 1z"/></g><g><path d="m21.867 33.006h-20.867c-.553 0-1-.447-1-1s.447-1 1-1h20.867c.553 0 1 .447 1 1s-.447 1-1 1z"/></g><g><path d="m1 10.004c-.553 0-1-.447-1-1s.447-1 1-1c1.654 0 3-1.346 3-3 0-.553.447-1 1-1s1 .447 1 1c0 2.757-2.243 5-5 5z"/></g><g><path d="m5 24.006c-.553 0-1-.447-1-1 0-1.654-1.346-3-3-3-.553 0-1-.447-1-1s.447-1 1-1c2.757 0 5 2.243 5 5 0 .553-.447 1-1 1z"/></g><g><path d="m37.002 10.004c-2.757 0-5-2.243-5-5 0-.553.447-1 1-1s1 .447 1 1c0 1.654 1.346 3 3 3 .553 0 1 .447 1 1s-.447 1-1 1z"/></g></g><g><path d="m19.002 18.996c-2.757 0-5-2.243-5-5s2.243-5 5-5 5 2.243 5 5-2.243 5-5 5zm0-8c-1.654 0-3 1.346-3 3s1.346 3 3 3 3-1.346 3-3-1.346-3-3-3z"/></g><g><path d="m42 59.996c-.553 0-1-.447-1-1v-42c0-.553.447-1 1-1s1 .447 1 1v42c0 .553-.447 1-1 1z"/></g><g><path d="m63 38.996h-42c-.553 0-1-.447-1-1s.447-1 1-1h42c.553 0 1 .447 1 1s-.447 1-1 1z"/></g></g></svg>