<svg width="21" height="21" viewBox="0 0 21 21" fill="none" xmlns="http://www.w3.org/2000/svg">
    <path d="M20.9534 11.4821H0.0473022V11.4824H20.9534V11.4821Z" fill="#C42126"/>
    <path d="M19.8638 5.75009H1.13623V5.7504H19.8638V5.75009Z" fill="#C42126"/>
    <path d="M20.6078 7.66049H0.391479V7.6608H20.6078V7.66049Z" fill="#C42126"/>
    <path d="M4.51287 19.1239H16.4873L16.4879 19.1233H4.51221L4.51287 19.1239Z" fill="#C42126"/>
    <path d="M10.4999 0C10.2936 0 10.089 0.00744811 9.88593 0.0190636H11.1139C10.9107 0.00744811 10.7061 0 10.4999 0Z" fill="#C42126"/>
    <path d="M20.9561 9.57126H0.043335V9.57157H20.9561V9.57126Z" fill="#C42126"/>
    <path d="M13.6034 3.83974H18.6172C18.0217 3.11475 17.3295 2.47297 16.5627 1.92966H12.7978C13.1093 2.47776 13.3772 3.1245 13.6034 3.83974Z" fill="#E7E7E7"/>
    <path d="M12.7978 1.92965H16.5627C15.0063 0.826662 13.1376 0.135938 11.114 0.0190735H10.7907C11.7432 0.138953 12.1807 0.843863 12.7978 1.92965Z" fill="#DC3027"/>
    <path d="M20.6085 7.66064C20.4218 6.99483 20.1715 6.35602 19.8638 5.75055H14.0956C14.2124 6.36382 14.3047 7.0044 14.3729 7.66064H20.6085Z" fill="#E7E7E7"/>
    <path d="M13.7711 5.75024H19.8636C19.5164 5.06736 19.0993 4.42656 18.6172 3.83984H13.2952C13.4828 4.43388 13.6422 5.07468 13.7711 5.75024Z" fill="#DC3027"/>
    <path d="M14.5938 11.4816H20.9527C20.9829 11.1585 20.9999 10.8311 20.9999 10.5002C20.9999 10.187 20.9835 9.8778 20.9567 9.57141H14.5953C14.616 10.2067 14.6157 10.8467 14.5938 11.4816Z" fill="#E7E7E7"/>
    <path d="M20.9568 9.5711C20.8993 8.91504 20.7811 8.27677 20.6085 7.66101H14.105C14.1703 8.28652 14.2135 8.92648 14.2345 9.5711H20.9568Z" fill="#DC3027"/>
    <path d="M13.9858 15.3026H19.8362C20.1483 14.6978 20.4026 14.0585 20.5932 13.3922H14.2687C14.199 14.0494 14.1045 14.6899 13.9858 15.3026Z" fill="#E7E7E7"/>
    <path d="M20.5934 13.392C20.7696 12.7765 20.892 12.1382 20.9528 11.482H14.3957C14.3733 12.1271 14.3288 12.7669 14.2622 13.392H20.5934Z" fill="#DC3027"/>
    <path d="M16.4879 19.1233C17.2658 18.5821 17.9677 17.9397 18.5727 17.2132H13.6463C13.416 17.9314 13.1426 18.5771 12.8254 19.1233H16.4879Z" fill="#E7E7E7"/>
    <path d="M13.4609 17.213H18.5727C19.0604 16.627 19.4839 15.9862 19.8362 15.3026H13.9428C13.812 15.9787 13.6511 16.6198 13.4609 17.213Z" fill="#DC3027"/>
    <path d="M10.1194 20.9925C10.0982 20.9919 10.077 20.9909 10.0557 20.9902C10.077 20.9909 10.0982 20.9919 10.1194 20.9925Z" fill="#DC3027"/>
    <path d="M10.4999 21C12.7259 21 14.7885 20.3052 16.4872 19.1239H12.6871C12.0127 20.2859 11.5677 21 10.4999 21Z" fill="#DC3027"/>
    <path d="M10.4999 21C10.3724 21 10.2458 20.997 10.1194 20.9926C10.2471 20.9969 10.3739 21 10.4999 21Z" fill="#C42126"/>
    <path d="M13.1454 1.92966H4.43747C3.67054 2.47297 2.97853 3.11471 2.38281 3.83974H13.9508C13.7247 3.1245 13.457 2.47776 13.1454 1.92966Z" fill="#F3F4F5"/>
    <path d="M4.43744 1.92965H13.1454C12.5282 0.843863 11.7432 0.138953 10.7907 0.0190735H9.88596C7.86233 0.135938 5.9937 0.826662 4.43744 1.92965Z" fill="#E73625"/>
    <path d="M0.391663 7.66064H14.704C14.6357 7.00427 14.5435 6.36382 14.4266 5.75055H1.13638C0.828663 6.35606 0.578353 6.99483 0.391663 7.66064Z" fill="#F3F4F5"/>
    <path d="M2.38283 3.83972C1.90105 4.42644 1.4836 5.0672 1.1366 5.75012H14.4267C14.2979 5.07469 14.1386 4.43393 13.9509 3.83972C13.9509 3.83972 2.38283 3.83972 2.38283 3.83972Z" fill="#E73625"/>
    <path d="M6.10352e-05 10.5002C6.10352e-05 10.8311 0.0173069 11.1585 0.047321 11.4816H14.8323C14.8542 10.8466 14.8545 10.2068 14.8338 9.57153H0.043331C0.0164646 9.87779 6.10352e-05 10.187 6.10352e-05 10.5002Z" fill="#F3F4F5"/>
    <path d="M0.043335 9.5711H14.8336C14.8126 8.92635 14.7693 8.28656 14.7041 7.66101H0.39149C0.218898 8.2769 0.100703 8.91504 0.043335 9.5711Z" fill="#E73625"/>
    <path d="M14.6989 13.3921H0.406738C0.597419 14.0585 0.851897 14.6977 1.16374 15.3025H14.416C14.5348 14.6898 14.6291 14.0494 14.6989 13.3921Z" fill="#F3F4F5"/>
    <path d="M0.406779 13.392H14.6989C14.7654 12.7669 14.81 12.1269 14.8324 11.482H0.0473633C0.10819 12.1383 0.230729 12.7765 0.406779 13.392Z" fill="#E73625"/>
    <path d="M4.51224 19.1233H13.1134C13.4306 18.577 13.7041 17.9314 13.9343 17.2132H2.42743C3.03241 17.9397 3.73417 18.5821 4.51224 19.1233Z" fill="#F3F4F5"/>
    <path d="M1.16394 15.3026C1.51626 15.9861 1.93965 16.6269 2.42742 17.213H13.9343C14.1243 16.6198 14.2853 15.9787 14.416 15.3026H1.16394Z" fill="#E73625"/>
    <path d="M10.0557 20.9902C10.077 20.9909 10.0982 20.9918 10.1194 20.9925C10.2458 20.997 10.3724 21 10.4999 21C11.5677 21 12.4385 20.2859 13.1131 19.1239H4.51288C6.09769 20.2261 7.99997 20.9045 10.0557 20.9902Z" fill="#E73625"/>
    <path d="M10.2829 0.00546265C4.90218 0.114923 0.516658 4.26942 0.0446777 9.55399H10.283V0.00546265H10.2829Z" fill="#283991"/>
    <path d="M2.101 5.94907L2.26095 6.44162H2.77922L2.35995 6.74619L2.52008 7.2391L2.101 6.93435L1.68204 7.2391L1.84186 6.74619L1.42273 6.44162H1.94099L2.101 5.94907Z" fill="#EFEFEF"/>
    <path d="M2.101 7.68924L2.26095 8.1821H2.77922L2.35995 8.48668L2.52008 8.97958L2.101 8.67483L1.68204 8.97958L1.84186 8.48668L1.42273 8.1821H1.94099L2.101 7.68924Z" fill="#EFEFEF"/>
    <path d="M3.84147 3.3382L4.00147 3.83092H4.51956L4.10042 4.13568L4.26042 4.62823L3.84147 4.32383L3.42233 4.62823L3.58234 4.13568L3.16302 3.83092H3.68129L3.84147 3.3382Z" fill="#EFEFEF"/>
    <path d="M3.84147 5.07867L4.00147 5.5714H4.51956L4.10042 5.8758L4.26042 6.3687L3.84147 6.06431L3.42233 6.3687L3.58234 5.8758L3.16302 5.5714H3.68129L3.84147 5.07867Z" fill="#EFEFEF"/>
    <path d="M3.84147 6.81909L4.00147 7.312H4.51956L4.10042 7.61622L4.26042 8.10913L3.84147 7.80442L3.42233 8.10913L3.58234 7.61622L3.16302 7.312H3.68129L3.84147 6.81909Z" fill="#EFEFEF"/>
    <path d="M0.77962 8.10917L0.619486 7.61626L1.03862 7.31186H0.520666L0.50905 7.27591C0.45217 7.45183 0.400787 7.62987 0.353394 7.80991L0.360709 7.80446L0.77962 8.10917Z" fill="#EFEFEF"/>
    <path d="M1.68201 5.49864L2.10097 5.19393L2.5201 5.49864L2.35997 5.00573L2.7791 4.70102H2.26084L2.10083 4.20847L1.94083 4.70102H1.74984C1.71438 4.75475 1.68006 4.8088 1.64557 4.86333L1.84188 5.00573L1.68201 5.49864Z" fill="#EFEFEF"/>
    <path d="M3.84149 2.58335L4.26044 2.88774L4.10044 2.39519L4.5194 2.09048H4.22014C3.96598 2.2805 3.72076 2.4816 3.48517 2.69378L3.422 2.88774L3.84149 2.58335Z" fill="#EFEFEF"/>
    <path d="M5.16278 2.01768L5.58191 1.71297L6.00087 2.01768L5.84086 1.52477L6.25982 1.22038H5.74173L5.72001 1.15405C5.54445 1.24374 5.37071 1.33706 5.20091 1.43637L5.3226 1.52473L5.16278 2.01768Z" fill="#EFEFEF"/>
    <path d="M5.58191 2.46814L5.74191 2.96056H6.26L5.84086 3.26526L6.00087 3.75817L5.58191 3.45342L5.16277 3.75817L5.32277 3.26526L4.9035 2.96056H5.42173L5.58191 2.46814Z" fill="#EFEFEF"/>
    <path d="M5.58191 4.20859L5.74191 4.70101H6.26L5.84086 5.00571L6.00087 5.49862L5.58191 5.19387L5.16277 5.49862L5.32277 5.00571L4.9035 4.70101H5.42173L5.58191 4.20859Z" fill="#EFEFEF"/>
    <path d="M5.58191 5.94907L5.74191 6.44162H6.26L5.84086 6.74619L6.00087 7.2391L5.58191 6.93435L5.16277 7.2391L5.32277 6.74619L4.9035 6.44162H5.42173L5.58191 5.94907Z" fill="#EFEFEF"/>
    <path d="M5.58191 7.68924L5.74191 8.1821H6.26L5.84086 8.48668L6.00087 8.97958L5.58191 8.67483L5.16277 8.97958L5.32277 8.48668L4.9035 8.1821H5.42173L5.58191 7.68924Z" fill="#EFEFEF"/>
    <path d="M7.32238 1.59772L7.48238 2.09045H8.00047L7.58151 2.3952L7.74134 2.88775L7.32238 2.58335L6.90311 2.88775L7.06325 2.3952L6.64398 2.09045H7.1622L7.32238 1.59772Z" fill="#EFEFEF"/>
    <path d="M7.32238 3.3382L7.48238 3.83092H8.00047L7.58151 4.13568L7.74134 4.62823L7.32238 4.32383L6.90311 4.62823L7.06325 4.13568L6.64398 3.83092H7.1622L7.32238 3.3382Z" fill="#EFEFEF"/>
    <path d="M7.32238 5.07867L7.48238 5.5714H8.00047L7.58151 5.8758L7.74134 6.3687L7.32238 6.06431L6.90311 6.3687L7.06325 5.8758L6.64398 5.5714H7.1622L7.32238 5.07867Z" fill="#EFEFEF"/>
    <path d="M7.32238 6.81909L7.48238 7.312H8.00047L7.58151 7.61622L7.74134 8.10913L7.32238 7.80442L6.90311 8.10913L7.06325 7.61622L6.64398 7.312H7.1622L7.32238 6.81909Z" fill="#EFEFEF"/>
    <path d="M9.06286 0.727661L9.22286 1.22039H9.74095L9.32181 1.52479L9.48181 2.01769L9.06286 1.71294L8.64359 2.01769L8.80373 1.52479L8.38446 1.22039H8.90255L9.06286 0.727661Z" fill="#EFEFEF"/>
    <path d="M9.06286 2.46814L9.22286 2.96056H9.74095L9.32181 3.26526L9.48181 3.75817L9.06286 3.45342L8.64359 3.75817L8.80373 3.26526L8.38446 2.96056H8.90255L9.06286 2.46814Z" fill="#EFEFEF"/>
    <path d="M9.06286 4.20859L9.22286 4.70101H9.74095L9.32181 5.00571L9.48181 5.49862L9.06286 5.19387L8.64359 5.49862L8.80373 5.00571L8.38446 4.70101H8.90255L9.06286 4.20859Z" fill="#EFEFEF"/>
    <path d="M9.06286 5.94907L9.22286 6.44162H9.74095L9.32181 6.74619L9.48181 7.2391L9.06286 6.93435L8.64359 7.2391L8.80373 6.74619L8.38446 6.44162H8.90255L9.06286 5.94907Z" fill="#EFEFEF"/>
    <path d="M9.06286 7.68924L9.22286 8.1821H9.74095L9.32181 8.48668L9.48181 8.97958L9.06286 8.67483L8.64359 8.97958L8.80373 8.48668L8.38446 8.1821H8.90255L9.06286 7.68924Z" fill="#EFEFEF"/>
</svg>